<?xml version="1.0" encoding="utf-8"?>
<!-- Generator: Adobe Illustrator 13.0.2, SVG Export Plug-In . SVG Version: 6.00 Build 14948)  -->
<!DOCTYPE svg PUBLIC "-//W3C//DTD SVG 1.1//EN" "http://www.w3.org/Graphics/SVG/1.1/DTD/svg11.dtd">
<svg version="1.1" id="Ebene_1" xmlns="http://www.w3.org/2000/svg" xmlns:xlink="http://www.w3.org/1999/xlink" x="0px" y="0px"
	 width="420.08px" height="220.439px" viewBox="0 0 420.08 220.439" enable-background="new 0 0 420.08 220.439"
	 xml:space="preserve">
<polygon points="108.754,185.648 107.054,186.648 107.054,146.948 107.904,146.448 108.754,146.948 "/>
<rect x="113.004" y="149.897" width="1.7" height="32.801"/>
<polygon points="142.254,204.998 142.254,206.998 107.054,186.648 108.754,185.648 "/>
<polygon points="175.804,185.648 176.654,186.148 176.654,187.148 142.254,206.998 142.254,204.998 "/>
<polygon points="170.254,181.998 171.104,183.448 142.704,199.848 141.854,198.398 "/>
<polygon points="175.804,146.948 176.654,146.448 177.504,146.948 177.504,185.648 176.654,186.148 175.804,185.648 "/>
<polygon points="142.254,127.599 142.254,125.647 176.654,145.498 176.654,146.448 175.804,146.948 "/>
<polygon points="141.854,134.248 142.704,132.748 171.104,149.147 170.254,150.647 "/>
<polygon points="108.754,146.948 107.904,146.448 107.904,145.498 142.254,125.647 142.254,127.599 "/>
<g>
	<path d="M204.38,215.441v-17.18h2.332l9.023,13.488v-13.488h2.18v17.18h-2.332l-9.023-13.5v13.5H204.38z"/>
</g>
<polygon points="201.304,199.398 200.454,200.898 176.654,187.148 176.654,186.148 177.504,185.648 "/>
<polygon points="244.554,185.648 246.253,186.648 221.904,200.698 221.054,199.198 "/>
<polygon points="239.003,181.998 239.853,183.448 218.954,195.548 218.103,194.048 "/>
<polygon points="244.554,146.948 246.253,145.998 246.253,186.648 244.554,185.648 "/>
<polygon points="211.003,127.599 211.003,126.647 211.853,126.147 246.253,145.998 244.554,146.948 "/>
<polygon points="210.603,134.248 211.454,132.748 239.853,149.147 239.003,150.647 "/>
<polygon points="177.504,146.948 176.654,146.448 176.654,145.498 210.154,126.147 211.003,126.647 211.003,127.599 "/>
<polygon points="210.154,87.498 211.003,86.998 211.853,87.448 211.853,126.147 211.003,126.647 210.154,126.147 "/>
<g>
	<path d="M151.826,76.601v-17.18h2.273v7.055h8.93v-7.055h2.273v17.18h-2.273v-8.098h-8.93v8.098H151.826z"/>
	<path d="M168.396,68.233c0-2.852,0.766-5.084,2.297-6.697s3.508-2.42,5.93-2.42c1.586,0,3.016,0.379,4.289,1.137
		s2.244,1.814,2.912,3.17s1.002,2.893,1.002,4.611c0,1.742-0.352,3.301-1.055,4.676s-1.699,2.416-2.988,3.123
		s-2.68,1.061-4.172,1.061c-1.617,0-3.063-0.391-4.336-1.172s-2.238-1.848-2.895-3.199S168.396,69.741,168.396,68.233z
		 M170.74,68.269c0,2.07,0.557,3.701,1.67,4.893s2.51,1.787,4.189,1.787c1.711,0,3.119-0.602,4.225-1.805s1.658-2.91,1.658-5.121
		c0-1.398-0.236-2.619-0.709-3.662s-1.164-1.852-2.074-2.426s-1.932-0.861-3.064-0.861c-1.609,0-2.994,0.553-4.154,1.658
		S170.74,65.683,170.74,68.269z"/>
</g>
<polygon points="184.454,76.048 188.254,69.398 211.054,85.948 211.003,86.998 210.154,87.498 "/>
<polygon points="244.503,66.648 245.353,67.148 244.353,68.698 211.853,87.448 211.003,86.998 211.054,85.948 "/>
<g>
	<path d="M273.13,96.441v-17.18h2.332l9.023,13.488V79.262h2.18v17.18h-2.332l-9.023-13.5v13.5H273.13z"/>
</g>
<polygon points="270.003,80.398 269.154,81.848 246.353,68.698 245.353,67.148 246.204,66.648 "/>
<polygon points="313.253,66.648 314.954,67.648 290.554,81.698 289.704,80.248 "/>
<polygon points="313.253,27.948 314.103,27.448 314.954,27.998 314.954,67.648 313.253,66.648 "/>
<polygon points="279.704,8.598 279.704,6.648 314.054,26.448 314.103,27.448 313.253,27.948 "/>
<polygon points="246.204,27.948 244.503,26.998 279.704,6.648 279.704,8.598 "/>
<polygon points="246.204,66.648 245.353,67.148 244.503,66.648 244.503,26.998 246.204,27.948 "/>
<polygon points="294.103,54.398 300.753,58.248 299.704,59.598 293.454,55.998 "/>
<polygon points="292.454,58.348 298.154,61.648 297.103,62.998 291.804,59.948 "/>
<polygon points="290.804,62.348 295.554,65.048 294.503,66.398 290.154,63.898 "/>
<polygon points="289.154,66.298 292.954,68.448 291.904,69.848 288.503,67.848 "/>
<polygon points="287.503,70.248 290.304,71.898 289.304,73.248 286.853,71.848 "/>
<polygon points="285.853,74.198 287.704,75.298 286.654,76.648 285.204,75.798 "/>
<polygon points="265.304,40.198 258.704,36.398 259.704,34.998 266.054,38.648 "/>
<polygon points="267.353,35.748 261.554,32.348 262.554,30.998 268.103,34.198 "/>
<polygon points="269.404,31.248 264.404,28.348 265.404,26.948 270.154,29.698 "/>
<polygon points="271.454,26.748 267.304,24.348 268.253,22.948 272.204,25.198 "/>
<polygon points="273.503,22.248 270.154,20.298 271.154,18.898 274.253,20.698 "/>
<polygon points="275.554,17.798 273.003,16.298 274.003,14.898 276.304,16.198 "/>
<polygon points="277.603,13.298 275.853,12.298 276.853,10.898 278.353,11.748 "/>
<polygon points="296.103,49.048 294.804,53.998 293.154,53.548 294.454,48.598 "/>
<polygon points="291.853,47.898 290.554,52.848 288.904,52.398 290.204,47.498 "/>
<polygon points="287.603,46.798 286.253,51.698 284.654,51.248 285.954,46.348 "/>
<polygon points="283.353,45.648 282.003,50.548 280.353,50.098 281.704,45.198 "/>
<polygon points="279.054,44.498 277.753,49.398 276.103,48.998 277.454,44.048 "/>
<polygon points="274.804,43.348 273.503,48.298 271.853,47.848 273.154,42.898 "/>
<polygon points="270.554,42.198 269.253,47.148 267.603,46.698 268.904,41.748 "/>
<polygon points="266.304,41.048 264.954,45.998 263.353,45.548 264.654,40.648 "/>
<g>
	<path d="M65.166,127.723c0-2.852,0.766-5.084,2.297-6.697s3.508-2.42,5.93-2.42c1.586,0,3.016,0.379,4.289,1.137
		s2.244,1.814,2.912,3.17s1.002,2.893,1.002,4.611c0,1.742-0.352,3.301-1.055,4.676s-1.699,2.416-2.988,3.123
		s-2.68,1.061-4.172,1.061c-1.617,0-3.063-0.391-4.336-1.172s-2.238-1.848-2.895-3.199S65.166,129.23,65.166,127.723z
		 M67.509,127.758c0,2.07,0.557,3.701,1.67,4.893s2.51,1.787,4.189,1.787c1.711,0,3.119-0.602,4.225-1.805s1.658-2.91,1.658-5.121
		c0-1.398-0.236-2.619-0.709-3.662s-1.164-1.852-2.074-2.426s-1.932-0.861-3.064-0.861c-1.609,0-2.994,0.553-4.154,1.658
		S67.509,125.172,67.509,127.758z"/>
</g>
<polygon points="82.754,132.897 83.604,131.448 107.904,145.498 107.904,146.448 107.054,146.948 "/>
<g>
	<path d="M4.998,155.897v-17.18h2.273v7.055h8.93v-7.055h2.273v17.18h-2.273V147.8h-8.93v8.098H4.998z"/>
</g>
<g>
	<path d="M20.48,156.985l1.582-0.211c0.182,0.896,0.491,1.542,0.927,1.938c0.437,0.395,0.968,0.593,1.595,0.593
		c0.744,0,1.373-0.258,1.885-0.773s0.769-1.154,0.769-1.916c0-0.727-0.237-1.326-0.712-1.797c-0.475-0.473-1.078-0.708-1.811-0.708
		c-0.299,0-0.671,0.059-1.116,0.176l0.176-1.389c0.105,0.012,0.19,0.018,0.255,0.018c0.674,0,1.28-0.176,1.819-0.527
		s0.809-0.894,0.809-1.626c0-0.58-0.196-1.061-0.589-1.441s-0.899-0.571-1.521-0.571c-0.615,0-1.128,0.193-1.538,0.58
		s-0.674,0.967-0.791,1.74l-1.582-0.281c0.193-1.061,0.633-1.882,1.318-2.466c0.686-0.582,1.538-0.874,2.558-0.874
		c0.703,0,1.351,0.151,1.942,0.452c0.592,0.303,1.044,0.714,1.358,1.235s0.47,1.075,0.47,1.661c0,0.557-0.149,1.063-0.448,1.521
		s-0.741,0.82-1.327,1.09c0.762,0.176,1.354,0.54,1.775,1.095c0.422,0.553,0.633,1.246,0.633,2.078c0,1.125-0.41,2.079-1.23,2.86
		c-0.82,0.783-1.857,1.174-3.111,1.174c-1.131,0-2.07-0.337-2.817-1.011S20.585,158.058,20.48,156.985z"/>
</g>
<g>
	<path d="M44.068,149.874l2.273,0.574c-0.477,1.867-1.334,3.291-2.572,4.271s-2.752,1.471-4.541,1.471
		c-1.852,0-3.357-0.377-4.518-1.131s-2.043-1.846-2.648-3.275s-0.908-2.965-0.908-4.605c0-1.789,0.342-3.35,1.025-4.682
		s1.656-2.344,2.918-3.035s2.65-1.037,4.166-1.037c1.719,0,3.164,0.438,4.336,1.313s1.988,2.105,2.449,3.691l-2.238,0.527
		c-0.398-1.25-0.977-2.16-1.734-2.73s-1.711-0.855-2.859-0.855c-1.32,0-2.424,0.316-3.311,0.949s-1.51,1.482-1.869,2.549
		s-0.539,2.166-0.539,3.299c0,1.461,0.213,2.736,0.639,3.826s1.088,1.904,1.986,2.443s1.871,0.809,2.918,0.809
		c1.273,0,2.352-0.367,3.234-1.102S43.755,151.319,44.068,149.874z"/>
</g>
<polygon points="48.604,142.048 47.754,140.599 63.254,131.599 64.104,133.099 "/>
<polygon points="345.554,4.998 351.503,10.398 314.954,27.998 314.103,27.448 314.054,26.448 "/>
<g>
	<path d="M386.56,33.465l2.273,0.574c-0.477,1.867-1.334,3.291-2.572,4.271s-2.752,1.471-4.541,1.471
		c-1.852,0-3.357-0.377-4.518-1.131s-2.043-1.846-2.648-3.275s-0.908-2.965-0.908-4.605c0-1.789,0.342-3.35,1.025-4.682
		s1.656-2.344,2.918-3.035s2.65-1.037,4.166-1.037c1.719,0,3.164,0.438,4.336,1.313s1.988,2.105,2.449,3.691l-2.238,0.527
		c-0.398-1.25-0.977-2.16-1.734-2.73s-1.711-0.855-2.859-0.855c-1.32,0-2.424,0.316-3.311,0.949s-1.51,1.482-1.869,2.549
		s-0.539,2.166-0.539,3.299c0,1.461,0.213,2.736,0.639,3.826s1.088,1.904,1.986,2.443s1.871,0.809,2.918,0.809
		c1.273,0,2.352-0.367,3.234-1.102S386.248,34.91,386.56,33.465z"/>
	<path d="M391.705,39.488v-17.18h2.273v7.055h8.93v-7.055h2.273v17.18h-2.273v-8.098h-8.93v8.098H391.705z"/>
</g>
<g>
	<path d="M415.083,42.471v1.521h-8.517c-0.012-0.381,0.05-0.747,0.185-1.099c0.217-0.58,0.563-1.151,1.042-1.714
		c0.477-0.563,1.167-1.213,2.069-1.951c1.4-1.148,2.347-2.058,2.839-2.729s0.738-1.305,0.738-1.903c0-0.627-0.225-1.156-0.672-1.586
		c-0.449-0.431-1.033-0.646-1.754-0.646c-0.762,0-1.371,0.229-1.828,0.686s-0.688,1.09-0.694,1.898l-1.626-0.167
		c0.111-1.213,0.53-2.137,1.257-2.773s1.702-0.954,2.927-0.954c1.236,0,2.215,0.343,2.936,1.028s1.081,1.535,1.081,2.549
		c0,0.516-0.105,1.022-0.316,1.521s-0.562,1.022-1.05,1.573c-0.49,0.551-1.303,1.307-2.439,2.268
		c-0.949,0.797-1.559,1.337-1.828,1.622s-0.492,0.57-0.668,0.857H415.083z"/>
</g>
<polygon points="374.503,21.698 373.654,23.198 351.503,10.398 345.554,4.998 "/>
<polygon points="371.554,26.848 370.704,28.348 348.003,15.248 348.853,13.748 "/>
<g>
	<path d="M238.628,116.285v-17.18h2.273v7.055h8.93v-7.055h2.273v17.18h-2.273v-8.098h-8.93v8.098H238.628z"/>
</g>
<polygon points="249.204,96.798 241.503,96.798 244.353,68.698 245.353,67.148 246.353,68.698 "/>
</svg>
